<?xml version="1.0" encoding="UTF-8"?>
<svg width="454px" height="451px" viewBox="0 0 454 451" version="1.1" xmlns="http://www.w3.org/2000/svg" xmlns:xlink="http://www.w3.org/1999/xlink">
    <!-- Generator: Sketch 52.6 (67491) - http://www.bohemiancoding.com/sketch -->
    <title>Group</title>
    <desc>Created with Sketch.</desc>
    <g id="Page-1" stroke="none" stroke-width="1" fill="none" fill-rule="evenodd" stroke-linecap="square">
        <g id="Group" transform="translate(10.000000, 10.000000)" fill-rule="nonzero" stroke="#979797">
            <path d="M2.5,1.5 L431,1.5" id="Line" stroke-width="20"></path>
            <path d="M2.5,430.5 L431,430.5" id="Line" stroke-width="20"></path>
            <path d="M217.5,216.5 L646,216.5" id="Line" stroke-width="20" transform="translate(431.500000, 216.000000) scale(-1, 1) rotate(90.000000) translate(-431.500000, -216.000000) "></path>
            <path d="M-212.5,216 L216,216" id="Line" stroke-width="20" transform="translate(1.500000, 215.500000) scale(-1, 1) rotate(90.000000) translate(-1.500000, -215.500000) "></path>
            <path d="M2.5,430 L108.734375,430" id="Line-2"></path>
            <path d="M426,8 L11,421" id="Line-3" stroke-width="20"></path>
            <path d="M373,8 L5,376" id="Line-3" stroke-width="20"></path>
            <path d="M429,112 L267,274" id="Line-3" stroke-width="20"></path>
            <path d="M429,58 L239.044922,247.955078" id="Line-3" stroke-width="20"></path>
            <path d="M322,5 L5,322" id="Line-3" stroke-width="20"></path>
            <path d="M424,171 L295.46875,299.53125" id="Line-3" stroke-width="20"></path>
            <path d="M425,223 L322,326" id="Line-3" stroke-width="20"></path>
            <path d="M426,275 L351,350" id="Line-3" stroke-width="20"></path>
            <path d="M425,328 L381.412109,371.587891" id="Line-3" stroke-width="20"></path>
            <path d="M424,377 L403.453125,397.546875" id="Line-3" stroke-width="20"></path>
            <path d="M213,8 L6,215" id="Line-3" stroke-width="20"></path>
            <path d="M162,6 L9,159" id="Line-3" stroke-width="20"></path>
            <path d="M108.734375,9.265625 L9,109" id="Line-3" stroke-width="20"></path>
            <path d="M57,8 L10,55" id="Line-3" stroke-width="20"></path>
            <path d="M267,7 L5,269" id="Line-3" stroke-width="20"></path>
        </g>
    </g>
</svg>